<svg width="29" height="29" viewBox="0 0 29 29" fill="none" xmlns="http://www.w3.org/2000/svg">
<circle cx="14.5" cy="14.5" r="14.5" fill="white"/>
<path d="M22.4771 10.0699C19.8371 5.99987 14.4471 4.78987 10.2671 7.31987C6.19707 9.84987 4.87707 15.3499 7.51707 19.4199L7.73707 19.7499L6.85707 23.0499L10.1571 22.1699L10.4871 22.3899C11.9171 23.1599 13.4571 23.5999 14.9971 23.5999C16.6471 23.5999 18.2971 23.1599 19.7271 22.2799C23.7971 19.6399 25.0071 14.2499 22.4771 10.0699ZM20.1671 18.5399C19.7271 19.1999 19.1771 19.6399 18.4071 19.7499C17.9671 19.7499 17.4171 19.9699 15.2171 19.0899C13.3471 18.2099 11.8071 16.7799 10.7071 15.1299C10.0471 14.3599 9.71707 13.3699 9.60707 12.3799C9.60707 11.4999 9.93707 10.7299 10.4871 10.1799C10.7071 9.95987 10.9271 9.84987 11.1471 9.84987H11.6971C11.9171 9.84987 12.1371 9.84987 12.2471 10.2899C12.4671 10.8399 13.0171 12.1599 13.0171 12.2699C13.1271 12.3799 13.1271 12.5999 13.0171 12.7099C13.1271 12.9299 13.0171 13.1499 12.9071 13.2599C12.7971 13.3699 12.6871 13.5899 12.5771 13.6999C12.3571 13.8099 12.2471 14.0299 12.3571 14.2499C12.7971 14.9099 13.3471 15.5699 13.8971 16.1199C14.5571 16.6699 15.2171 17.1099 15.9871 17.4399C16.2071 17.5499 16.4271 17.5499 16.5371 17.3299C16.6471 17.1099 17.1971 16.5599 17.4171 16.3399C17.6371 16.1199 17.7471 16.1199 17.9671 16.2299L19.7271 17.1099C19.9471 17.2199 20.1671 17.3299 20.2771 17.4399C20.3871 17.7699 20.3871 18.2099 20.1671 18.5399Z" fill="#2DB573"/>
</svg>
